HIERARCHY
ROOT Hips
{
	OFFSET -0.185621306741 -22.4353825647 2.47480850431
	CHANNELS 6 Xposition Yposition Zposition Zrotation Yrotation Xrotation
	JOINT LeftHip
	{
		OFFSET 6.72319026909 -8.86931468123 -0.852451703968
		CHANNELS 3 Zrotation Yrotation Xrotation
		JOINT LeftKnee
		{
			OFFSET 3.07536152747 -35.083736549 -0.399699859704
			CHANNELS 3 Zrotation Yrotation Xrotation
			JOINT LeftFoot
			{
				OFFSET -1.21706519926 -36.6409930738 -4.09969002896
				CHANNELS 3 Zrotation Yrotation Xrotation
				End LeftToe
				{
                                  OFFSET 2.3274557509 -5.22676062837 11.2312472476
				}
			}
		}
	}
	JOINT RightHip
	{
		OFFSET -6.51177688822 -8.79405265569 -0.569874565452
		CHANNELS 3 Zrotation Yrotation Xrotation
		JOINT RightKnee
		{
			OFFSET -3.50968503498 -35.8007525577 -0.699721479978
			CHANNELS 3 Zrotation Yrotation Xrotation
			JOINT RightFoot
			{
				OFFSET 1.45648181006 -36.7018219029 -3.92144848737
				CHANNELS 3 Zrotation Yrotation Xrotation
				End RightToe
				{
                                        OFFSET -2.06340809581 -4.49360517438 11.5708221
				}
			}
		}
	}
	JOINT Waist
	{
		OFFSET -0.250135395471 10.4101640276 -2.17402405724
		CHANNELS 3 Zrotation Yrotation Xrotation
		JOINT Spine
		{
			OFFSET 0.504969231961 13.5354058283 0.180910497775
			CHANNELS 3 Zrotation Yrotation Xrotation
                        JOINT Chest
                        {
                            OFFSET 0.17053602021 5.19764468886 2.53971727756
                            CHANNELS 3 Zrotation Yrotation Xrotation
                            JOINT Neck
                            {
                                OFFSET -0.308971672303 21.0047520442 -4.8204477275
                                CHANNELS 3 Zrotation Yrotation Xrotation
                                End Head
                                {
                                        OFFSET -0.0993190306119 26.4242189762 2.10327983549
                                }
                            }
                            JOINT LeftInnerShoulder
                            {
                                OFFSET 7.51722324721 11.8059665757 -3.51577543843
                                CHANNELS 3 Zrotation Yrotation Xrotation
                                JOINT LeftShoulder
                                {
                                        OFFSET 8.69715520493 2.81056495672 -0.767352838143
                                        CHANNELS 3 Zrotation Yrotation Xrotation
                                        JOINT LeftElbow
                                        {
                                                OFFSET 24.0941446213 -0.918154057002 -2.44224616596
                                                CHANNELS 3 Zrotation Yrotation Xrotation
                                                End LeftWrist
                                                {
                                                        OFFSET 22.7251120677 0.700920444579 -0.113858903721
                                                }
                                        }
                                }
                            }
                            JOINT RightInnerShoulder
                            {
                                OFFSET -7.79421048811 11.5493967354 -3.98247892842
                                CHANNELS 3 Zrotation Yrotation Xrotation
                                JOINT RightShoulder
                                {
                                        OFFSET -9.08450967381 3.01441476733 -0.948123392602
                                        CHANNELS 3 Zrotation Yrotation Xrotation
                                        JOINT RightElbow
                                        {
                                                OFFSET -23.4243820369 -1.06065027857 -1.79761945017
                                                CHANNELS 3 Zrotation Yrotation Xrotation
                                                End RightWrist
                                                {
                                                        OFFSET -23.3554770394 0.645871441956 -0.490649267008
                                                }
                                        }
                                }
                            }
                        }
                }
            }
}
MOTION
Frames: 24
Frame Time: 0.0333333333333
0.00000 0.00000 0.00000 -28.37597 26.74665 -16.85226 52.77537 39.17285 -69.92963 -13.79473 1.65604 83.25022 -19.27363 10.22630 -15.75529 -19.56613 -22.23772 -11.96668 14.55919 -2.75466 73.12148 11.75130 -14.80230 -12.55703 -15.12686 12.19021 38.25654 -6.64540 -8.96034 5.50154 -0.71299 -4.32819 6.07448 -5.90315 11.89496 6.16594 0.72177 -3.09217 3.00537 7.59935 1.75425 -17.57503 8.95334 -36.84127 -37.09792 -1.67281 0.89896 1.53000 22.30176 2.53988 -7.71537 -9.49922 30.63110 -29.16643
33.17852 17.39265 0.15506 -31.14967 37.08994 -15.47864 45.17644 34.06756 -74.75137 -11.49480 3.86632 80.65055 -17.59500 9.14137 -11.80465 -19.34008 -21.69722 0.20258 13.22125 0.32023 51.59990 7.26346 -16.01717 -15.89015 -11.79874 11.59994 41.26370 -5.88064 -11.95067 4.83334 -0.18289 -5.07307 5.59282 -10.04101 19.41255 1.14717 -0.89605 -8.06275 1.83928 12.02693 2.57288 -21.08901 1.05977 -26.62334 -27.46967 4.56447 0.51887 0.58246 18.46784 0.97939 -11.80849 -10.54685 20.21528 -30.38127
75.55746 44.88884 0.38804 -34.38268 43.51656 -3.91209 39.27734 28.45343 -78.45379 -9.74994 0.30201 77.02235 -20.05163 8.56458 -1.76851 -11.07985 -19.15774 -4.75427 7.55345 8.60786 24.83221 18.47659 -18.52483 -5.91554 -11.29839 11.77265 34.97974 -7.30986 -8.27512 -0.78048 -2.76052 -1.45718 9.53970 -13.99755 2.21546 -9.08345 10.37207 6.53306 2.02702 -12.77754 -8.33756 -7.50275 22.98460 -70.28875 -23.74662 -5.64940 -9.45082 1.31274 33.07831 -4.34773 -9.57218 -15.76061 33.98882 -31.73869
100.05459 69.67799 0.48267 -32.78856 43.99099 1.37878 41.16556 12.74984 -52.67002 -5.60376 -10.91733 52.38347 -13.72589 7.34857 -8.70473 -13.90065 -19.99648 -22.98702 2.64069 -5.85203 42.05068 24.74962 -26.92627 -1.49132 -11.07593 11.32253 28.69497 -11.71636 4.11599 1.40899 -4.81622 2.98195 7.36520 -8.29008 -3.49323 -7.53269 5.48031 10.13264 2.09331 -28.65406 -11.08320 4.24940 166.94818 -60.84138 -156.28676 -10.47707 -8.61674 1.12345 29.08054 2.24068 -7.37187 -120.22376 48.62427 -122.54235
132.93393 102.02699 0.61983 -33.45513 54.90323 5.47280 32.75846 6.88344 -59.20413 -4.64251 -12.94496 41.85618 -15.55522 9.56405 9.20543 -14.72273 -24.59303 -15.16014 3.39480 -9.17462 30.28737 21.81881 -32.21334 6.88681 -2.42870 12.92796 23.66400 -12.63601 5.73758 -2.38466 -4.06479 7.41172 7.52066 -9.70772 -7.67960 -1.39593 2.03032 7.24284 -3.75346 -39.06256 -7.13635 11.01031 22.72375 -77.05105 -18.24075 -17.77355 9.72540 -4.56782 -3.24201 23.20899 -22.46588 -42.61641 51.24254 -59.21151
183.90227 117.71388 0.73488 -27.17031 66.55743 15.99132 24.43866 -13.05809 -53.87391 -2.10081 -24.70717 32.97189 -16.33353 13.04641 11.20149 -9.61529 -19.66238 -3.59130 0.72695 -0.09154 8.00817 21.06117 -28.31749 -4.30779 4.96542 15.23025 23.15403 -17.78319 13.10878 -3.90631 -2.30908 14.93080 8.56390 -14.48139 -15.85147 0.17884 8.34805 6.30172 -6.46691 -44.23734 1.39760 18.74730 -35.10835 -76.99354 46.33614 -31.90007 17.40815 -4.74128 -0.14642 12.93125 -16.04030 2.21043 49.47394 -8.38915
207.37300 150.18661 0.76999 111.54053 81.19847 153.17066 2.00602 -20.19097 -41.86074 1.28996 -7.79462 21.32303 -5.74942 13.52927 4.84436 -2.18442 -15.91461 -2.65497 -1.10516 -8.77296 5.56215 13.69813 -24.71107 -6.98203 9.37319 14.05778 25.32258 -12.43606 13.80490 -4.75931 0.36497 15.04491 8.57115 -12.80016 -11.68114 -6.36847 3.62811 7.01359 -6.05757 -41.23436 1.52101 20.63498 -131.18175 -75.63967 131.69695 -20.16277 15.12495 -1.89628 16.21466 12.60518 7.67482 120.25667 82.28098 117.60477
231.92158 166.93090 0.81350 131.99723 47.16468 177.56308 -9.69156 -10.89471 -21.23339 -2.95756 7.38978 21.40941 0.16883 11.89269 -2.33162 -1.86924 -6.95920 -8.74686 -1.21169 -2.19610 10.16785 14.05986 -12.29723 -9.54084 12.34543 10.10758 17.37013 -7.40694 14.87424 -2.43934 0.54533 14.15885 8.58985 -14.42008 19.52775 -11.59999 1.32702 1.71773 -4.62950 -47.74356 -9.05368 17.38771 -130.37916 -78.59584 141.29186 -7.88127 17.92716 1.58135 43.19614 18.26150 24.06756 61.92817 70.01646 71.99627
259.66165 190.71506 0.87994 -15.86113 -74.73991 -41.19511 -9.33841 -4.76821 -23.16298 5.60198 23.57694 35.46980 7.86848 11.93643 5.31257 9.97608 -5.27727 17.91425 -3.59848 7.82218 8.15200 14.35169 -16.35170 9.37132 0.99188 2.43050 3.35226 1.27314 -10.72953 -3.44229 2.74551 -6.17845 6.89390 -13.03276 15.16164 -6.27082 5.75640 -24.98641 -6.85460 -75.69702 -42.92076 32.77932 -30.86982 -71.40811 47.34576 -6.28801 1.62614 -5.66862 67.58884 -0.68042 33.38360 150.01622 78.08573 170.52974
291.72636 189.65328 1.01243 2.45720 -74.07415 -64.80573 -2.65866 -5.90113 -38.05225 0.56107 21.02102 46.87653 13.66208 8.27692 -1.36758 -2.45113 -13.12188 11.15278 2.45607 0.16716 58.46859 12.88185 -14.79840 13.08793 0.13555 10.42506 11.86048 2.05817 -5.00886 0.62014 2.24501 -0.39048 5.57809 -10.00777 16.97430 -2.23872 4.72596 -30.80352 -8.65842 -71.76725 -46.44243 27.94003 -17.23016 -54.80771 22.13878 -6.63982 9.89792 -3.33844 69.39772 1.87490 28.85682 -97.53529 84.13157 -82.15836
293.97160 187.24367 1.22475 -8.14306 -66.98261 -56.28981 -3.51718 -11.11444 -37.23542 -2.12045 13.05614 44.52296 11.18497 7.33908 -3.65777 -2.22818 -13.10372 6.19022 1.16366 -2.14612 67.11347 16.66446 -21.47769 15.84430 -1.14263 11.32352 14.86036 1.95557 -4.53921 3.52152 1.89133 0.48691 5.42017 -10.57539 17.80206 -9.43974 5.28264 -37.47185 -9.93580 -63.69853 -47.88605 23.74331 -17.12118 -53.68481 13.73573 -4.21802 18.94467 -4.00167 64.38218 6.15059 28.73158 -58.58129 80.95236 -43.77128
333.12070 176.04278 1.50140 -18.87692 -51.39665 -45.41741 -9.35936 -9.59262 -34.16285 -1.75361 19.89610 39.79809 16.13604 3.63576 1.57629 4.44414 -8.04400 -12.32790 1.83136 -3.92653 82.36409 19.72027 -11.51371 15.63474 -0.73067 10.03133 17.60841 -2.65092 1.85284 -0.55724 -0.17009 4.09744 6.33613 -13.20666 21.24594 -13.21696 0.21042 -34.48300 -10.48417 -91.97604 -48.67835 40.02400 -5.30311 -35.93960 -1.35032 -4.86541 17.63314 -1.36579 80.41882 7.76348 26.87904 -31.74268 58.08510 -26.18160
362.27998 166.24750 1.74215 -36.54609 -13.03674 -34.30646 -2.55609 -8.48460 -39.60181 6.64747 23.56036 88.13018 11.62232 6.88775 5.12930 8.51808 -3.99905 -27.80977 -0.19504 -11.23197 84.10562 16.57586 -14.18947 26.57725 -1.68970 2.61705 19.56441 -5.65664 0.91320 -1.16107 -1.84762 -0.64460 5.41841 -16.32462 13.19852 -7.66370 -8.72858 -25.55784 0.03442 -81.96156 -32.98167 41.25615 -63.68107 -69.67185 69.84742 -5.33274 11.62300 -1.84651 57.99573 5.23538 29.23339 77.36560 83.69740 81.68366
393.83246 145.52424 2.01717 -46.37207 32.69928 -40.40852 19.63353 5.23483 -52.38512 -6.79893 15.77370 109.60272 -1.10372 -0.84852 17.94305 0.36650 -4.62459 -50.82050 4.66137 -11.81056 101.87350 15.95693 -9.24744 37.21161 -9.53376 -4.57239 33.50367 -7.47127 -3.08188 -4.17477 -5.33475 -6.76131 5.13767 -16.30040 4.44030 -1.05090 -10.45249 -6.00630 6.20699 -62.09098 -23.26675 29.73394 -158.39258 -56.95142 179.25756 6.60794 1.57032 -2.06840 56.56406 2.42010 19.18048 -7.71557 44.51983 -10.54424
403.49995 136.03387 2.30973 -55.80712 47.87504 -42.94752 38.91011 10.83093 -46.24946 -9.77818 -3.63853 63.62606 -20.35716 6.71284 36.28218 -5.71992 -15.52193 -63.01178 2.71718 -28.01110 63.17080 23.75549 -23.04058 51.29856 -12.39795 -2.41869 35.09235 -9.62587 -4.85690 -3.70067 -3.89348 -6.23493 4.28194 -18.97194 1.02453 2.35168 -7.10679 -2.86360 1.84084 -53.20812 -26.34976 29.61050 170.58337 -61.81703 -168.74146 11.22525 0.44566 2.50329 42.65086 4.72301 11.69447 -5.36530 28.29192 -22.28593
410.98625 106.04042 2.51118 -57.94392 50.97060 -44.46532 42.06736 7.74227 -43.40860 -1.05757 -20.52462 46.94466 -21.96628 9.03608 43.64720 2.32642 -11.57337 -78.86026 -9.87909 -41.62983 72.86741 20.10112 -30.36486 53.43933 -13.81156 5.07331 38.18635 -9.83296 -2.41273 -2.16515 -1.01759 -3.17828 4.81083 -26.77910 6.45418 0.67708 3.96917 -6.70752 -7.19160 -59.65229 -36.68289 28.75811 118.23490 -67.91614 -114.59670 1.89033 0.92065 1.33896 55.29410 3.01046 7.04648 -70.03120 48.14797 -70.92612
399.19890 120.53105 2.67722 -77.27506 56.14955 -60.65652 39.88977 26.85777 -77.56160 -14.71454 -4.03060 81.79295 -15.38914 -7.13949 36.21350 1.02060 -32.54688 -118.16034 -34.12496 -37.13734 146.01630 22.12018 -22.79208 56.01487 -6.90217 5.18473 68.04530 -8.32198 -4.21079 -18.07603 1.83975 -4.98061 -3.07303 -34.56606 -4.36605 -15.10048 -9.96188 -17.51740 -7.61243 -28.76296 -25.64508 11.77178 120.17700 -48.80522 -131.76734 7.69347 13.48908 -4.18962 18.60380 9.04943 -4.31171 -123.16662 10.24484 -133.92895
397.80458 128.81117 2.79607 -72.49476 64.65934 -63.62789 42.78400 15.91130 -39.06022 -5.37469 -3.93168 30.69097 -17.83923 -2.39186 42.79900 5.51474 -28.70719 -119.49466 -55.17832 -36.66829 173.09120 8.07836 2.45268 32.17916 -9.64197 -0.10626 73.42697 -24.97563 1.35534 -14.05656 -4.49221 -1.63133 -5.91562 -29.22815 12.09918 0.26666 -6.56764 -19.02877 -7.87325 -24.36261 -23.33160 -0.63620 89.79279 -63.40766 -84.07401 -4.38241 6.65463 -8.20838 23.13142 10.51573 -13.21152 -111.59995 38.17762 -94.31056
407.29233 134.82016 2.85721 -93.07269 69.23069 -80.61791 36.16680 18.32287 -47.50122 -0.92817 8.21514 38.38294 -10.99875 -0.19445 20.32168 5.90293 -16.11718 -113.26181 -36.75732 -52.15046 122.39576 18.38713 0.83644 30.22888 -7.55348 3.37839 75.00675 -26.55278 2.40678 -17.01581 -3.98510 1.00801 -0.73776 -35.42702 7.15275 1.33699 0.06453 -15.58410 -9.98079 -35.00911 -27.76590 -4.74448 59.45269 -53.64012 -57.79841 -14.31502 2.63930 -12.45951 29.70505 9.98083 -13.69825 -107.28329 36.65256 -89.19856
437.23776 132.91089 2.86212 -145.84814 66.27301 -141.53323 22.75396 8.79598 -57.89816 -7.91398 4.15900 74.12008 -1.90603 -0.82807 0.72177 0.71388 -10.75084 -77.14232 4.31379 -28.00094 57.69196 13.39303 -11.73479 25.40831 -4.46124 2.25825 74.33875 -24.35846 3.87162 -3.63156 -3.86456 0.96485 5.24787 -29.89071 9.31445 11.08819 -3.83182 -18.95181 -6.52757 -8.23161 -20.74121 -18.54625 28.36639 -41.15250 -43.57306 -12.05833 12.80678 -10.78714 1.90920 6.68706 -19.22108 -40.45998 35.04532 -56.50058
490.36331 119.73006 2.81845 -158.84670 54.89888 -138.29265 22.54910 7.79623 -60.55970 -6.14653 4.26417 49.36564 -13.73282 1.08198 9.16185 0.57533 -11.28481 -64.21390 6.01654 -26.59565 22.03577 16.29376 -18.73791 25.28509 -5.74013 5.32594 60.89305 -24.46762 4.51944 -5.08718 -4.46059 2.44431 8.23516 -30.70971 10.47907 16.06029 7.06630 0.55084 -4.84360 -16.81328 -11.07194 -9.86520 44.30955 -67.89994 -50.54481 -13.90557 0.65764 -6.50075 26.28703 4.48029 3.25835 -99.67951 73.06682 -99.74535
566.97771 100.26661 2.71865 -172.35553 -31.37266 -157.74855 4.01710 7.70437 -56.33826 -9.43828 23.11077 26.38811 -13.79283 6.66841 18.77847 -19.98092 -18.20134 -9.78532 6.22476 -12.78843 -1.81360 2.12074 -2.33923 20.37433 16.85821 -4.22844 58.67728 11.60667 -7.71309 4.78405 21.62412 0.21658 5.62700 -22.12630 -9.76104 39.90675 23.36046 -11.14725 -14.29356 -6.70418 -7.34960 -16.74277 54.20232 -52.27581 -28.78588 -17.70023 18.95316 -4.12943 13.52197 9.99873 -17.67162 -17.36194 35.39450 3.26435
640.69581 79.50344 2.57492 -166.44263 -35.14028 -159.37809 7.42979 12.95357 -59.15462 -9.69734 18.54619 37.97635 -19.57166 9.49238 29.39501 -16.74544 -17.35432 -19.73984 4.44507 -11.65806 25.11415 2.15850 -1.67074 14.99031 15.39894 0.69893 57.81386 8.96543 -2.45655 7.36357 17.61854 4.62368 7.80401 -19.08016 -0.38916 34.18002 33.05099 1.19488 -13.09980 -3.43657 7.93108 -19.63572 57.48219 -51.24316 -35.60637 -22.79702 19.35393 -2.14499 20.36489 14.12421 -19.20904 -21.09119 42.53636 -1.84367
721.75069 45.09577 2.37297 -174.24899 -53.09247 -145.31934 3.76992 -0.68186 -68.00368 -7.49189 19.51137 57.38139 -14.48119 6.91735 33.45955 -14.88146 -16.10623 -23.11845 1.17435 -12.98120 35.72592 6.05262 -2.14419 23.09384 17.66367 4.15206 55.17042 11.07274 4.91854 -6.61651 16.55039 7.87310 8.71262 -14.68690 -10.73209 22.89485 28.52195 20.17257 -12.29212 -9.13456 7.16639 -24.23244 89.75457 -43.66866 -62.71449 -15.90293 2.64714 -1.52343 33.75579 4.02836 -4.29309 -78.33902 74.14927 -44.93945
